PathFileType	4	(X/Y/Z)	57_2_92_p0_0-265_filt_butterworth.trc
DataRate	CameraRate	NumFrames	NumMarkers	Units	OrigDataRate	OrigDataStartFrame	OrigNumFrames
51.0	51.0	6	27	m	51.0	165	265
Frame#	Time	RHip			RKnee			RAnkle			RBigToe			RSmallToe			RHeel			LHip			LKnee			LAnkle			LBigToe			LSmallToe			LHeel			Neck			Head			Nose			RShoulder			RElbow			RWrist			RThumb			RIndex			RPinky			LShoulder			LElbow			LWrist			LThumb			LIndex			LPinky			
		X1	Y1	Z1	X2	Y2	Z2	X3	Y3	Z3	X4	Y4	Z4	X5	Y5	Z5	X6	Y6	Z6	X7	Y7	Z7	X8	Y8	Z8	X9	Y9	Z9	X10	Y10	Z10	X11	Y11	Z11	X12	Y12	Z12	X13	Y13	Z13	X14	Y14	Z14	X15	Y15	Z15	X16	Y16	Z16	X17	Y17	Z17	X18	Y18	Z18	X19	Y19	Z19	X20	Y20	Z20	X21	Y21	Z21	X22	Y22	Z22	X23	Y23	Z23	X24	Y24	Z24	X25	Y25	Z25	X26	Y26	Z26	X27	Y27	Z27	
165	3.235294117647059	0.26614801764676616	0.5562657398133064	0.9204505770871896	0.2868113726366634	0.7241760668214585	1.3604759268980178	0.2661428220854578	0.9007924037970658	1.7685482791246023	0.2536250185180525	0.7226801671944879	1.8166685554561324	0.31151246237747576	0.7407428787364652	1.8035654222591555	0.2393747145196437	0.9828094463146307	1.8100627417438668	0.08351944127418343	0.48654876849330997	0.9445811711146125	0.09897211597430716	0.6466891720715674	1.38021716218732	0.08197674664203479	0.8822714201022834	1.782153353954972	0.0948281342085389	0.7134600593218261	1.8205251572218129	0.04355483742443188	0.718323508911552	1.816766314371122	0.09112773996204193	0.9392791548281538	1.8203490794348425	0.12035344334895347	0.4172551974813165	0.4110939652121176	0.13351147413478234	0.29971817965704245	0.18808075215883097	0.17683170517572172	0.29503594557919705	0.3141927577722717	0.2358736910446507	0.4897785309247713	0.47941315770418763	0.33372641701431277	0.5028091527155375	0.7168024821755253	0.31986148161284356	0.2946353611658692	0.5776322688392517	0.25050205860266334	0.30278885502091524	0.47498331102963276	0.260110091679724	0.2602198409779824	0.4812531322544482	0.2782537268684569	0.2308757060296334	0.5333092890286393	-0.01802642939219302	0.38806254798278056	0.521434595825676	-0.06451936665402938	0.43358046511717707	0.7479686194860926	0.08862173196999708	0.30458977129585	0.7795948309315583	0.16626393983749843	0.23556104734410166	0.7448300529619554	0.16762153648966946	0.2333581075953307	0.7564679365078585	0.1560638366906689	0.2743243404769665	0.8062165648529007
166	3.2549019607843137	0.2659024342036628	0.5573270385929684	0.9202419551563011	0.2870655501703268	0.7238580462114284	1.3594579240553417	0.26625306182405484	0.9003985563279648	1.7684937034939552	0.25476834156310413	0.7227245274953639	1.815601972174395	0.3116125976806283	0.7406813397180289	1.803557400137303	0.23938564639772225	0.9828048771453106	1.8100839374415658	0.08340646196031132	0.48718836153155004	0.9447832424850975	0.09922000339626327	0.6461691027373151	1.379934331739927	0.08207450778338131	0.8823528165494992	1.7821338242054572	0.09516703631768726	0.7164568131769496	1.8213583246869969	0.043684926771689905	0.7179436734065067	1.8167327561908417	0.09145943483401647	0.938636903887101	1.819777693476898	0.12162920895729003	0.41320033596136846	0.41191185300644856	0.13369906036158308	0.29912051568069675	0.18819893622967243	0.17888074948597102	0.29048289008205835	0.3157553753773035	0.23676460768369317	0.4889022685970549	0.4750668598709133	0.3344753506013463	0.4840916460925047	0.7142365327178649	0.3138927018458385	0.2928590853732129	0.5659331487708588	0.24171121339626062	0.32343607646829464	0.4573028839863962	0.2476829762092332	0.26888227609692694	0.46385184105085764	0.2654670084501106	0.2228960340988687	0.5153878681795263	-0.015056697758239361	0.38320449132047196	0.5207854079442064	-0.0670999997485321	0.4403625869819176	0.7467088118202189	0.08793958871980108	0.309388911018519	0.7848528559251312	0.16713428181017154	0.23639711865300247	0.7523345385860774	0.16872095155589284	0.23800880136159988	0.7654815680070305	0.15117477279181846	0.2827135140196778	0.8144883049606798
167	3.2745098039215685	0.26496748404530795	0.5623401890823213	0.9201866115257649	0.2873872320704023	0.7239019846518612	1.3585763961974018	0.26666673702559784	0.9021633896083272	1.7690271425794108	0.25648574266603474	0.723318427065827	1.815346804212424	0.3117221404574422	0.7406931138229217	1.803609952469147	0.23940574343486187	0.9828273011592552	1.810105137433235	0.08231378279974977	0.49063018533542213	0.9447203200908856	0.09958439818057457	0.6454199540041126	1.3787670889062011	0.082087266274409	0.8823582057743011	1.7821316130570142	0.09500084132873182	0.7162214954585275	1.8213018729721295	0.043967047841691864	0.7178617382613779	1.8157519597176623	0.09142278784859084	0.9395174924206999	1.8206482131297663	0.1245510082600875	0.40503132471103787	0.41378993424381677	0.1335978689782661	0.29933682143223816	0.187150491110978	0.17941150485149476	0.28715471703378426	0.3165873065498496	0.2370124770763775	0.48781190646863554	0.47174722045899886	0.3359755635402241	0.46615931800580435	0.713110870253825	0.3069697291244479	0.29335369375705694	0.554321046251097	0.23589090622614628	0.3301318825872416	0.44445716468152313	0.240224279809582	0.28001160487150045	0.44627643261984273	0.2575131912711258	0.2193276303652168	0.4990795134739837	-0.010748102242959166	0.37328112242046874	0.5208354800830688	-0.06906581579553817	0.4457843616558842	0.7454619839433053	0.08794951804287415	0.31246669783115577	0.7906789253114483	0.16840356392504918	0.24024111654752883	0.7631013652306226	0.16986360339635156	0.2447294554222744	0.7767735788111614	0.14630482841820266	0.292050521203297	0.820748061212684
168	3.294117647058824	0.26193029136791046	0.5713223263145248	0.9192347344859249	0.28740950533706994	0.7237914980177186	1.3578226792627197	0.2671141016129602	0.9078616814946557	1.770550819605539	0.2578376509526583	0.724307868082888	1.8154897328703545	0.3117021372247486	0.7404991328166455	1.803641217799736	0.23942331255901603	0.9828370660979175	1.8101109903226513	0.08058825250886456	0.4959091355460973	0.9447460320557945	0.09983894560755852	0.6449434304137995	1.3770968883016586	0.08209249976020658	0.882284866532316	1.7821734953958326	0.09477953016133044	0.7117248424783365	1.820019637448393	0.04430373889809609	0.7179388959779995	1.8135659011188683	0.09045109189423703	0.9438704972092244	1.8235253872132542	0.12770899722122703	0.39659481261934615	0.41590325447764637	0.1335160208393693	0.2993894522543858	0.1857517846164874	0.17931369995945018	0.2860595931564053	0.31700933282135263	0.23698820791331635	0.4871252043301797	0.46983606550413903	0.3382082049306353	0.44994719703404684	0.7117841144141022	0.30070239337845306	0.2938611211044083	0.5433584400473455	0.23264477341876286	0.33157903508243736	0.4371666300853484	0.23591868725668685	0.29284633864460163	0.4332939016571933	0.25407686156762044	0.21847325706718704	0.4878257992526921	-0.007162692089638558	0.36104003396268364	0.5218056522214968	-0.07013137376183441	0.4485222868882501	0.7446464396973683	0.08807078912938204	0.3139560336998144	0.7952526378958343	0.17016524347886464	0.24702159327154408	0.7751598746537512	0.17112548499560368	0.2520077911082249	0.7886205774173272	0.14106078156314325	0.3005890280169072	0.8252944455202068
169	3.313725490196078	0.2577002364715037	0.5800499849047208	0.9168018382923944	0.28712203495750865	0.7230667084187702	1.3573554651227444	0.2668827263986015	0.9157036840351875	1.772580902184927	0.2583221315417256	0.7250063207792581	1.8156247260972944	0.3117395353521856	0.7388188997878213	1.8032693805776696	0.23942146639949446	0.9828347726809884	1.8101150902724832	0.07932997244115528	0.4997048996990372	0.9447702579307711	0.0998910410561693	0.6448788256701083	1.3759221091600375	0.08211138975663217	0.8821889847945659	1.7822346825796516	0.09523083047991084	0.7053382907639967	1.8181646489848295	0.044538610790016364	0.7178762989869578	1.8112302155639834	0.08909972921705323	0.9506699935593124	1.8267707098155466	0.12941809163360116	0.3920155329947697	0.4165759202235571	0.13349071940562715	0.2991525333521935	0.18459396310740583	0.17928010709188616	0.28621568970475325	0.3172562930431484	0.23694897722027738	0.48703024920265003	0.4693938590182633	0.3404590511563567	0.44032792895328066	0.7086851109890387	0.2961250419034833	0.29335753236703543	0.5353824661661628	0.23204655920989456	0.33457000120815605	0.4343521602602695	0.23463408972006347	0.30265443399692826	0.42658708144940194	0.25346702203574806	0.2176468137954455	0.4831502473675908	-0.005548690683994974	0.34960253565666555	0.5232403794814103	-0.07024122446733089	0.4486178048693399	0.7441198607905619	0.0881311366709457	0.3147683455407756	0.7978820327217556	0.17144037925092642	0.25294145885931263	0.785207453364805	0.1721686348825647	0.2570571137172817	0.7989669148593553	0.13609374266136473	0.30628833267259975	0.8296100881383334
170	3.333333333333333	0.2547753824330629	0.5845236193321525	0.914111290049261	0.286761436524247	0.7218808523949993	1.3567866743621364	0.2656005268560126	0.9209099810804279	1.77390328871369	0.2583132805057571	0.7251257210518307	1.8156409095486157	0.31138542204464137	0.7346634655526951	1.802217477081685	0.23939421129164795	0.9828242725498213	1.8101283810159676	0.07899190232217634	0.5006498634564818	0.9447433989535234	0.09982722821634969	0.6449525744774787	1.375603906656371	0.08211099328793028	0.8821504171043362	1.782268854364638	0.09583830369146398	0.7012052359048334	1.816967203619231	0.04463061283150186	0.7176786231259471	1.810579694197547	0.08854862833496734	0.9555600054039286	1.8285345541557434	0.12968326620403053	0.39135291771285236	0.41578510208056574	0.13346200135629285	0.29864795584055165	0.18358061892520974	0.1794231297250536	0.28660546813475013	0.3173651730781601	0.23656710469289494	0.48726689945925206	0.4704387587319432	0.3414091124921529	0.4390120754411292	0.7038267380471419	0.2930262609742969	0.291882992310614	0.5307164476680102	0.23239873966441596	0.33612778172598345	0.43429889589976944	0.23439597766116954	0.30611650344222735	0.4233901468037028	0.2536313680887857	0.21351548146948165	0.48048450789469843	-0.005285109430983701	0.34277664896823473	0.5242503591528216	-0.07002290096247585	0.44772632355599135	0.7431973144864394	0.0882649406180177	0.3153878520065762	0.7996786484972606	0.17187280001157787	0.25588670578361417	0.7919721923267238	0.1728266841281972	0.25914917544678545	0.8064809888244521	0.1326831777051237	0.3092148960527232	0.8344724827885891
